HIERARCHY
ROOT Hips
{
	OFFSET 0.000000 0.000000 0.000000
	CHANNELS 6 Xposition Yposition Zposition Xrotation Yrotation Zrotation
	JOINT Chest
	{
		OFFSET 0.000000 0.009282 11.569106
		CHANNELS 6 Xposition Yposition Zposition Xrotation Yrotation Zrotation
		JOINT Chest2
		{
			OFFSET 0.000000 -0.016863 9.269641
			CHANNELS 6 Xposition Yposition Zposition Xrotation Yrotation Zrotation
			JOINT Chest3
			{
				OFFSET 0.000000 0.000000 8.374491
				CHANNELS 6 Xposition Yposition Zposition Xrotation Yrotation Zrotation
				JOINT Chest4
				{
					OFFSET 0.000000 0.000000 8.374493
					CHANNELS 6 Xposition Yposition Zposition Xrotation Yrotation Zrotation
					JOINT Neck
					{
						OFFSET 0.000000 -0.000001 12.152554
						CHANNELS 6 Xposition Yposition Zposition Xrotation Yrotation Zrotation
						JOINT Head
						{
							OFFSET 0.000000 -0.040100 7.802319
							CHANNELS 6 Xposition Yposition Zposition Xrotation Yrotation Zrotation
							End Site
							{
								OFFSET 0.000000 -0.020946 14.853096
							}
						}
					}
					JOINT RightCollar
					{
						OFFSET -2.894404 0.000000 6.791374
						CHANNELS 6 Xposition Yposition Zposition Xrotation Yrotation Zrotation
						JOINT RightShoulder
						{
							OFFSET -13.574684 0.000000 0.000000
							CHANNELS 6 Xposition Yposition Zposition Xrotation Yrotation Zrotation
							JOINT RightElbow
							{
								OFFSET -23.923903 0.000000 0.000000
								CHANNELS 6 Xposition Yposition Zposition Xrotation Yrotation Zrotation
								JOINT RightWrist
								{
									OFFSET -19.846718 -0.012765 0.000000
									CHANNELS 6 Xposition Yposition Zposition Xrotation Yrotation Zrotation
									End Site
									{
										OFFSET -14.973145 0.000000 0.000000
									}
								}
							}
						}
					}
					JOINT LeftCollar
					{
						OFFSET 2.894404 0.000000 6.791374
						CHANNELS 6 Xposition Yposition Zposition Xrotation Yrotation Zrotation
						JOINT LeftShoulder
						{
							OFFSET 13.574684 0.000000 0.000000
							CHANNELS 6 Xposition Yposition Zposition Xrotation Yrotation Zrotation
							JOINT LeftElbow
							{
								OFFSET 23.923903 0.000000 0.000000
								CHANNELS 6 Xposition Yposition Zposition Xrotation Yrotation Zrotation
								JOINT LeftWrist
								{
									OFFSET 19.846718 -0.012765 0.000000
									CHANNELS 6 Xposition Yposition Zposition Xrotation Yrotation Zrotation
									End Site
									{
										OFFSET 14.973145 0.000000 0.000000
									}
								}
							}
						}
					}
				}
			}
		}
	}
	JOINT RightHip
	{
		OFFSET -9.469263 -0.004642 0.045487
		CHANNELS 6 Xposition Yposition Zposition Xrotation Yrotation Zrotation
		JOINT RightKnee
		{
			OFFSET 0.000000 -0.002666 -40.478676
			CHANNELS 6 Xposition Yposition Zposition Xrotation Yrotation Zrotation
			JOINT RightAnkle
			{
				OFFSET 0.000000 -0.049110 -35.224068
				CHANNELS 6 Xposition Yposition Zposition Xrotation Yrotation Zrotation
				JOINT RightToe
				{
					OFFSET 0.000000 -12.539530 -6.151390
					CHANNELS 6 Xposition Yposition Zposition Xrotation Yrotation Zrotation
					End Site
					{
						OFFSET 0.000000 -5.044995 -1.291870
					}
				}
			}
		}
	}
	JOINT LeftHip
	{
		OFFSET 9.469263 -0.004642 0.045487
		CHANNELS 6 Xposition Yposition Zposition Xrotation Yrotation Zrotation
		JOINT LeftKnee
		{
			OFFSET 0.000000 -0.002666 -40.478676
			CHANNELS 6 Xposition Yposition Zposition Xrotation Yrotation Zrotation
			JOINT LeftAnkle
			{
				OFFSET 0.000000 -0.049110 -35.224068
				CHANNELS 6 Xposition Yposition Zposition Xrotation Yrotation Zrotation
				JOINT LeftToe
				{
					OFFSET 0.000000 -12.539530 -6.151390
					CHANNELS 6 Xposition Yposition Zposition Xrotation Yrotation Zrotation
					End Site
					{
						OFFSET 0.000000 -5.044995 -1.291870
					}
				}
			}
		}
	}
}
MOTION
Frames: 8
Frame Time: 0.016667
8.560476 33.924122 9.385500 -12.555661 28.615525 -112.309777 0.000003 0.009281 11.569107 13.825233 11.216578 2.670911 -0.000002 -0.016864 9.269643 6.183338 4.920435 1.509860 0.000001 0.000000 8.374493 6.183338 4.920435 1.509865 0.000007 -0.000001 8.374491 4.646861 3.675534 1.181742 -0.000001 -0.000002 12.152557 21.596496 2.544084 3.284128 0.000006 -0.040096 7.802316 3.856060 3.721528 6.738831 -2.894402 -0.000003 6.791373 -0.812478 -7.196726 -4.511265 -13.574687 0.000002 -0.000001 38.046292 -37.119387 38.190347 -23.923901 0.000001 -0.000009 58.781011 0.937070 53.478018 -19.846722 -0.012764 -0.000001 -41.527690 32.159683 81.452164 2.894401 -0.000003 6.791378 -14.341377 8.025962 1.180121 13.574682 0.000001 -0.000001 15.176310 24.958715 3.286863 23.923903 -0.000004 -0.000000 63.812067 2.734331 -79.232503 19.846716 -0.012769 0.000004 -26.818432 -32.049447 -87.248208 -9.469259 -0.004641 0.045487 -69.555464 2.873315 -37.307395 -0.000722 -0.007206 -40.476910 139.875062 -11.230691 16.038034 -0.000653 -0.049196 -35.224113 13.539010 -44.984647 20.149432 0.000020 -12.539532 -6.151373 0.169869 -0.024225 -0.408261 9.469264 -0.004642 0.045487 -47.795034 -9.346064 -27.316761 -0.000449 -0.005651 -40.476063 99.538177 -16.031543 10.003323 -0.000252 -0.050018 -35.222076 52.788917 -38.456386 6.978972 0.000004 -12.539529 -6.151381 0.029517 -0.001654 -0.080489 
8.564246 33.899231 9.380535 -12.587466 28.684127 -112.259657 -0.000002 0.009280 11.569106 13.797603 11.229759 2.690179 -0.000004 -0.016864 9.269641 6.173166 4.912499 1.516112 -0.000005 -0.000001 8.374493 6.173168 4.912499 1.516107 0.000000 0.000001 8.374492 4.639280 3.669541 1.186260 0.000000 -0.000002 12.152550 21.597603 2.523815 3.276285 0.000002 -0.040096 7.802310 3.859269 3.686740 6.718590 -2.894403 -0.000001 6.791376 -0.815467 -7.184149 -4.494214 -13.574684 0.000001 -0.000013 38.119364 -37.173011 38.162999 -23.923893 0.000001 0.000006 58.773457 0.923281 53.431030 -19.846718 -0.012768 0.000001 -41.646645 32.179733 81.581542 2.894406 -0.000001 6.791370 -14.324064 8.074740 1.225266 13.574686 -0.000002 0.000004 15.181479 24.968405 3.323922 23.923906 -0.000001 -0.000002 63.788994 2.733606 -79.180423 19.846718 -0.012767 0.000001 -26.839887 -32.025388 -87.284463 -9.469265 -0.004643 0.045487 -69.540424 2.866372 -37.206721 -0.000724 -0.007211 -40.476906 139.778168 -11.316190 16.045460 -0.000658 -0.049195 -35.224094 13.601258 -44.993287 20.189290 0.000016 -12.539531 -6.151368 0.154002 -0.029526 -0.368528 9.469259 -0.004644 0.045490 -47.788286 -9.262330 -27.233837 -0.000452 -0.005651 -40.476055 99.571112 -16.073179 10.063282 -0.000259 -0.050008 -35.222080 52.703051 -38.450536 7.044743 0.000010 -12.539531 -6.151381 0.067732 0.012872 -0.166318 
8.582915 33.911510 9.372910 -12.555637 28.750097 -112.234331 0.000000 0.009281 11.569105 13.792081 11.190001 2.699781 -0.000003 -0.016864 9.269639 6.166484 4.903905 1.521693 -0.000001 -0.000000 8.374493 6.166483 4.903905 1.521694 -0.000003 0.000001 8.374492 4.634301 3.663056 1.190307 -0.000002 0.000000 12.152550 21.599285 2.506441 3.273747 -0.000001 -0.040094 7.802310 3.863373 3.655767 6.708875 -2.894408 0.000002 6.791372 -0.806185 -7.165850 -4.476690 -13.574688 0.000002 -0.000005 38.181840 -37.218722 38.137987 -23.923901 0.000004 -0.000001 58.753390 0.910235 53.393631 -19.846714 -0.012770 0.000005 -41.726568 32.191324 81.672602 2.894400 0.000001 6.791370 -14.369837 8.126968 1.287617 13.574688 -0.000001 0.000003 15.209013 24.986908 3.381173 23.923908 0.000001 0.000002 63.773954 2.716734 -79.124285 19.846722 -0.012770 0.000000 -26.846786 -31.997759 -87.303560 -9.469261 -0.004641 0.045487 -69.581801 3.025528 -37.166693 -0.000730 -0.007205 -40.476906 139.933801 -11.261548 16.129355 -0.000658 -0.049197 -35.224121 13.383437 -45.007245 20.273601 0.000023 -12.539535 -6.151377 0.222081 -0.042647 -0.499772 9.469266 -0.004642 0.045487 -47.772085 -9.211827 -27.181762 -0.000456 -0.005651 -40.476051 99.611322 -16.120643 10.115905 -0.000262 -0.050009 -35.222088 52.597504 -38.456205 7.148280 0.000012 -12.539531 -6.151382 0.113187 0.031183 -0.266001 
8.583887 33.886089 9.368900 -12.574842 28.831752 -112.208144 0.000001 0.009285 11.569109 13.778881 11.201971 2.708498 -0.000001 -0.016865 9.269638 6.161265 4.895137 1.526053 0.000006 0.000001 8.374492 6.161265 4.895135 1.526050 -0.000002 -0.000001 8.374493 4.630416 3.656447 1.193448 -0.000000 -0.000002 12.152553 21.602198 2.489581 3.275721 0.000004 -0.040093 7.802311 3.869799 3.624515 6.707529 -2.894405 -0.000000 6.791376 -0.812712 -7.151225 -4.463251 -13.574687 -0.000001 -0.000001 38.231359 -37.265574 38.091285 -23.923901 -0.000001 -0.000003 58.756607 0.895698 53.367591 -19.846720 -0.012770 -0.000004 -41.793084 32.205920 81.753253 2.894401 -0.000001 6.791370 -14.410386 8.164954 1.357473 13.574682 -0.000000 -0.000000 15.204530 25.018665 3.450639 23.923903 -0.000001 -0.000002 63.789623 2.698024 -79.070764 19.846716 -0.012767 0.000001 -26.848453 -31.977552 -87.322029 -9.469265 -0.004641 0.045488 -69.559965 3.011968 -37.073669 -0.000731 -0.007217 -40.476906 139.837632 -11.347413 16.146951 -0.000660 -0.049194 -35.224102 13.609114 -44.850103 20.386281 0.000015 -12.539531 -6.151375 0.171542 -0.057275 -0.379330 9.469260 -0.004642 0.045489 -47.753087 -9.137870 -27.098762 -0.000453 -0.005648 -40.476070 99.677226 -16.128800 10.146587 -0.000266 -0.050000 -35.222092 52.469493 -38.449788 7.280264 0.000015 -12.539531 -6.151383 0.165652 0.042910 -0.350950 
8.602088 33.903461 9.360905 -12.531373 28.889200 -112.214079 0.000004 0.009284 11.569107 13.768853 11.157272 2.716584 -0.000002 -0.016862 9.269643 6.154232 4.885336 1.529447 0.000003 0.000001 8.374491 6.154233 4.885337 1.529454 -0.000005 -0.000002 8.374490 4.625158 3.649079 1.195839 -0.000004 -0.000003 12.152553 21.604757 2.473792 3.279040 0.000001 -0.040095 7.802310 3.875471 3.594811 6.708959 -2.894407 -0.000001 6.791378 -0.830113 -7.141776 -4.437869 -13.574677 0.000002 -0.000004 38.252457 -37.318084 38.018339 -23.923901 -0.000001 -0.000006 58.790068 0.889115 53.342797 -19.846724 -0.012765 -0.000002 -41.884137 32.222674 81.850310 2.894399 -0.000000 6.791378 -14.420389 8.190925 1.423229 13.574679 0.000000 0.000003 15.154837 25.063709 3.522215 23.923903 -0.000005 -0.000006 63.830590 2.693703 -79.012844 19.846712 -0.012770 -0.000000 -26.858556 -31.961269 -87.359069 -9.469262 -0.004641 0.045487 -69.612427 3.164384 -37.029304 -0.000732 -0.007223 -40.476925 140.036992 -11.314534 16.262114 -0.000667 -0.049202 -35.224129 13.363087 -44.725841 20.485233 0.000025 -12.539532 -6.151378 0.245301 -0.070516 -0.525153 9.469262 -0.004641 0.045489 -47.730479 -9.110241 -27.075956 -0.000456 -0.005651 -40.476059 99.738821 -16.118731 10.157342 -0.000270 -0.050002 -35.222107 52.346764 -38.432853 7.439191 0.000022 -12.539534 -6.151367 0.201962 0.056373 -0.429269 
8.599776 33.878387 9.354343 -12.543631 28.936557 -112.209141 0.000001 0.009284 11.569108 13.740579 11.158635 2.724352 -0.000005 -0.016866 9.269642 6.145548 4.874058 1.531414 0.000007 0.000002 8.374484 6.145550 4.874060 1.531412 -0.000004 -0.000003 8.374491 4.618649 3.640620 1.197128 -0.000002 -0.000003 12.152556 21.608818 2.459246 3.280496 0.000001 -0.040097 7.802320 3.883859 3.567990 6.707309 -2.894403 -0.000000 6.791369 -0.832273 -7.132211 -4.418215 -13.574688 0.000003 -0.000001 38.270376 -37.359267 37.962229 -23.923903 -0.000001 -0.000001 58.815797 0.877525 53.313902 -19.846708 -0.012765 -0.000008 -41.988561 32.234596 81.967092 2.894403 -0.000002 6.791369 -14.419129 8.221549 1.470322 13.574684 0.000001 0.000004 15.120505 25.107813 3.579672 23.923903 -0.000001 -0.000009 63.859714 2.700192 -78.952629 19.846714 -0.012769 0.000004 -26.891449 -31.948364 -87.417030 -9.469262 -0.004642 0.045489 -69.609654 3.118925 -36.950432 -0.000737 -0.007211 -40.476910 139.968676 -11.424449 16.301013 -0.000669 -0.049200 -35.224133 13.096504 -44.550220 20.485245 0.000031 -12.539533 -6.151362 0.307806 -0.097407 -0.644410 9.469263 -0.004642 0.045489 -47.724714 -9.051154 -27.018072 -0.000458 -0.005661 -40.476063 99.798469 -16.110965 10.179133 -0.000275 -0.049990 -35.222115 52.229203 -38.421668 7.567462 0.000023 -12.539531 -6.151369 0.232460 0.063360 -0.475351 
8.619185 33.901798 9.344366 -12.487313 28.974820 -112.220056 -0.000002 0.009281 11.569107 13.727443 11.098702 2.723162 -0.000002 -0.016862 9.269646 6.136869 4.862220 1.530635 -0.000001 -0.000003 8.374494 6.136874 4.862220 1.530643 -0.000002 -0.000000 8.374491 4.612122 3.631767 1.196362 -0.000000 -0.000003 12.152559 21.618271 2.447735 3.283598 0.000001 -0.040097 7.802315 3.902117 3.546514 6.709376 -2.894403 0.000001 6.791377 -0.791576 -7.112568 -4.407894 -13.574689 -0.000002 -0.000005 38.287571 -37.381031 37.957567 -23.923899 -0.000007 -0.000007 58.824458 0.872101 53.274687 -19.846712 -0.012762 -0.000002 -42.100507 32.245320 82.085473 2.894404 0.000001 6.791378 -14.377750 8.246863 1.512330 13.574685 0.000001 -0.000004 15.102187 25.160617 3.597812 23.923899 -0.000002 -0.000004 63.862528 2.714479 -78.890208 19.846718 -0.012764 -0.000001 -26.927628 -31.939549 -87.473249 -9.469267 -0.004643 0.045489 -69.654604 3.265713 -36.946102 -0.000742 -0.007215 -40.476925 140.215301 -11.378930 16.432315 -0.000673 -0.049198 -35.224129 13.289361 -44.334153 20.610355 0.000021 -12.539534 -6.151378 0.196397 -0.066991 -0.419853 9.469262 -0.004642 0.045489 -47.709964 -9.032301 -26.997335 -0.000458 -0.005660 -40.476059 99.837661 -16.126551 10.190347 -0.000280 -0.049982 -35.222115 52.152528 -38.458610 7.712300 0.000021 -12.539533 -6.151366 0.249050 0.077900 -0.512205 
8.613747 33.875683 9.338622 -12.492482 29.017239 -112.210179 -0.000001 0.009281 11.569111 13.700707 11.094548 2.717684 0.000000 -0.016865 9.269643 6.127621 4.849629 1.527941 -0.000002 -0.000000 8.374495 6.127623 4.849631 1.527943 -0.000005 -0.000000 8.374496 4.605151 3.622372 1.194146 -0.000005 -0.000006 12.152561 21.634155 2.435557 3.288850 0.000001 -0.040096 7.802311 3.932324 3.523513 6.714995 -2.894409 -0.000002 6.791383 -0.756772 -7.098441 -4.391538 -13.574682 0.000000 -0.000002 38.316979 -37.403806 37.948866 -23.923903 -0.000003 -0.000002 58.817976 0.877365 53.222757 -19.846720 -0.012765 0.000001 -42.179512 32.244053 82.176977 2.894400 -0.000003 6.791378 -14.305850 8.257463 1.544448 13.574681 0.000000 0.000003 15.096870 25.219480 3.579330 23.923899 -0.000002 -0.000005 63.855425 2.716090 -78.832028 19.846720 -0.012768 0.000001 -26.959863 -31.927829 -87.501833 -9.469263 -0.004642 0.045489 -69.607476 3.220465 -36.922626 -0.000741 -0.007207 -40.476921 140.126522 -11.491445 16.437725 -0.000678 -0.049202 -35.224144 13.004783 -44.081003 20.608260 0.000025 -12.539532 -6.151368 0.271225 -0.097334 -0.561909 9.469262 -0.004644 0.045490 -47.702950 -8.977537 -26.914810 -0.000455 -0.005655 -40.476063 99.873341 -16.147925 10.208970 -0.000286 -0.049979 -35.222122 52.100970 -38.521311 7.854431 0.000025 -12.539533 -6.151373 0.262420 0.082175 -0.523915 
